<?xml version="1.0" standalone="no"?>
<!DOCTYPE svg PUBLIC "-//W3C//DTD SVG 20010904//EN"
 "http://www.w3.org/TR/2001/REC-SVG-20010904/DTD/svg10.dtd">
<svg version="1.0" xmlns="http://www.w3.org/2000/svg"
 width="400.000000pt" height="400.000000pt" viewBox="0 0 400.000000 400.000000"
 preserveAspectRatio="xMidYMid meet">
<metadata>
Created by potrace 1.11, written by Peter Selinger 2001-2013
</metadata>
<g transform="translate(0.000000,400.000000) scale(0.100000,-0.100000)"
fill="#000000" stroke="none">
<path d="M1935 3937 c-86 -87 -215 -175 -360 -247 -220 -108 -380 -154 -690
-196 -68 -9 -452 -12 -490 -4 l-30 7 1 -931 c1 -837 3 -939 18 -1006 9 -41 19
-84 21 -96 8 -36 71 -186 105 -249 91 -170 258 -374 424 -519 32 -28 73 -65
90 -81 17 -17 49 -43 71 -60 22 -16 42 -32 45 -35 3 -3 23 -19 45 -35 22 -17
42 -32 45 -35 9 -11 275 -186 310 -206 19 -10 37 -21 40 -25 9 -9 212 -119
317 -170 l101 -50 114 57 c598 299 1092 702 1333 1090 58 93 119 231 153 349
l26 90 4 951 3 951 -203 -1 c-226 -1 -329 5 -463 30 -49 8 -103 18 -120 21
-69 11 -266 77 -366 122 -165 74 -301 163 -419 274 -33 31 -63 56 -67 56 -5
-1 -30 -25 -58 -52z m167 -353 c65 -46 224 -132 328 -178 73 -33 279 -95 384
-116 172 -34 175 -35 386 -55 19 -2 68 -4 108 -4 l72 -1 0 -772 c-1 -836 -2
-849 -56 -991 -118 -308 -435 -645 -874 -929 -163 -105 -196 -125 -295 -178
-55 -29 -113 -60 -128 -69 -27 -16 -30 -15 -104 24 -623 326 -1079 739 -1241
1121 -17 40 -35 96 -41 125 -6 30 -14 65 -17 79 -8 31 -11 1568 -4 1579 3 5
61 11 131 15 69 3 134 8 145 10 10 2 46 7 79 10 142 16 397 76 493 117 23 10
44 19 47 20 2 0 15 3 27 6 51 13 298 147 373 202 65 48 83 57 96 47 9 -6 50
-34 91 -62z"/>
<path d="M1280 2655 l0 -125 717 2 718 3 0 120 0 120 -717 3 -718 2 0 -125z"/>
<path d="M1282 2070 l3 -125 715 0 715 0 0 125 1 125 -718 0 -719 0 3 -125z"/>
<path d="M1280 1485 l0 -125 718 2 717 3 0 123 0 122 -717 0 -718 0 0 -125z"/>
</g>
</svg>
